# xmcd
#
# Track frame offsets:
#	150
#	16345
#	33235
#	46424
#	64837
#	84142
#	98618
#	117294
#	131018
#	142088
#	155171
#	169254
#
# Disc length: 2479 seconds
#
# Revision: 1
# Processed by: cddbd v1.5.2PL0 Copyright (c) Steve Scherf et al.
# Submitted via: audiograbber 1.83.01
#
DISCID=9c09ad0c
DTITLE=Adam Karch - Blueprints
DYEAR=2014
DGENRE=Acoustic
TTITLE0=Walk on the Wild Side
TTITLE1=Take This Hammer
TTITLE2=Mystery Train
TTITLE3=Into the Mystic
TTITLE4=Little Wing
TTITLE5=Make Me a Pallet on Your Floor
TTITLE6=Hard Time Killing Floor
TTITLE7=Stayin' Alive
TTITLE8=Fishin' Blues
TTITLE9=I'm on Fire
TTITLE10=Sin
TTITLE11=Stand By Me
EXTD=
EXTT0=
EXTT1=
EXTT2=
EXTT3=
EXTT4=
EXTT5=
EXTT6=
EXTT7=
EXTT8=
EXTT9=
EXTT10=
EXTT11=
PLAYORDER=
